<?xml version="1.0" encoding="utf-8"?>
<!-- Generator: Adobe Illustrator 24.1.1, SVG Export Plug-In . SVG Version: 6.00 Build 0)  -->
<svg version="1.1" id="Layer_1" xmlns="http://www.w3.org/2000/svg" xmlns:xlink="http://www.w3.org/1999/xlink" x="0px" y="0px"
	 viewBox="0 0 512 512" style="enable-background:new 0 0 512 512;" xml:space="preserve">
<style type="text/css">
	.st0{fill:#333333;}
</style>
<g id="XMLID_2_">
	<path id="XMLID_4_" class="st0" d="M512,187.1V404c0,18.6-6.5,35.4-20.5,48.4c-14,14-29.8,20.5-48.4,20.5H68.9
		c-18.6,0-35.4-6.5-48.4-20.5C6.5,438.5,0,422.6,0,404V108c0-18.6,6.5-35.4,20.5-48.4s29.8-20.5,48.4-20.5h98.7
		c18.6,0,35.4,6.5,48.4,20.5s20.5,29.8,20.5,48.4v10.2h206.7c18.6,0,35.4,6.5,48.4,20.5C505.5,151.7,512,168.5,512,187.1z"/>
</g>
</svg>
